/* XPM */
static char *_bd97c4f338749a2ce5981ab178e2340v0ZDai4Ld5z65MyH[] = {
/* columns rows colors chars-per-pixel */
"50 50 190 2 ",
"   c #9F1903",
".  c #A21405",
"X  c #AE1303",
"o  c #AC1C01",
"O  c #A91709",
"+  c #B21505",
"@  c #BD1506",
"#  c #B21C02",
"$  c #BA1C06",
"%  c #AE2002",
"&  c #BD2203",
"*  c #BA2B00",
"=  c #B32809",
"-  c #B23401",
";  c #BB3403",
":  c #C21B03",
">  c #C02802",
",  c #CC2E01",
"<  c #D12801",
"1  c #C63704",
"2  c #C13A00",
"3  c #D13302",
"4  c #D03900",
"5  c #C24000",
"6  c #CC4201",
"7  c #D54200",
"8  c #D64C00",
"9  c #DA4C01",
"0  c #C95603",
"q  c #D45502",
"w  c #DE5400",
"e  c #D25800",
"r  c #DC5D03",
"t  c #CE5914",
"y  c #E25301",
"u  c #E55D00",
"i  c #E85F00",
"p  c #CE6706",
"a  c #DB6806",
"s  c #D47004",
"d  c #E36202",
"f  c #EB6200",
"g  c #E56E04",
"h  c #EC6C01",
"j  c #F36600",
"k  c #F46A00",
"l  c #FD6C00",
"z  c #E17505",
"x  c #EB7300",
"c  c #EB7B02",
"v  c #E47F0B",
"b  c #F27200",
"n  c #FE7401",
"m  c #F57B00",
"M  c #FD7B01",
"N  c #D15B2D",
"B  c #DE7A48",
"V  c #4D8E3E",
"C  c #52923E",
"Z  c #659239",
"A  c #769332",
"S  c #5CAE3E",
"D  c #378B45",
"F  c #388C46",
"G  c #3B8E49",
"H  c #3A9345",
"J  c #3E9B45",
"K  c #3FA046",
"L  c #418746",
"P  c #418D43",
"I  c #418F4A",
"U  c #44944E",
"Y  c #4A9849",
"T  c #4C9654",
"R  c #529753",
"E  c #559A5B",
"W  c #5A9D5F",
"Q  c #6E9947",
"!  c #6F9E54",
"~  c #41A546",
"^  c #43AB46",
"/  c #46B146",
"(  c #49B14A",
")  c #59A55A",
"_  c #5D9E62",
"`  c #65A367",
"'  c #71A86E",
"]  c #72B56D",
"[  c #79AD76",
"{  c #B79C1E",
"}  c #8C962B",
"|  c #9B9928",
" . c #A89923",
".. c #9DA928",
"X. c #C69E19",
"o. c #E28406",
"O. c #ED8204",
"+. c #EF8D06",
"@. c #E68E08",
"#. c #FE8401",
"$. c #F78B03",
"%. c #F28A04",
"&. c #FE8C01",
"*. c #EC9407",
"=. c #EF9A07",
"-. c #FF9200",
";. c #F39B07",
":. c #FE9C04",
">. c #F8990C",
",. c #CAA318",
"<. c #D7A014",
"1. c #DDA212",
"2. c #E7A20F",
"3. c #EEA30D",
"4. c #FEA306",
"5. c #FFAA07",
"6. c #F4A40A",
"7. c #FEA508",
"8. c #FDAD09",
"9. c #FEB00A",
"0. c #E3A211",
"q. c #FFAB12",
"w. c #FAA91A",
"e. c #FFB315",
"r. c #FFB61B",
"t. c #FFB91B",
"y. c #E9812C",
"u. c #E9AA2E",
"i. c #FFB421",
"p. c #FEBC22",
"a. c #FEB72E",
"s. c #E7B13A",
"d. c #FFBA36",
"f. c #FFC02C",
"g. c #FEC032",
"h. c #98A64F",
"j. c #93AD66",
"k. c #84B27E",
"l. c #BCB765",
"z. c #DE935F",
"x. c #FCBB49",
"c. c #FFB958",
"v. c #EDA566",
"b. c #84C07A",
"n. c #FFC549",
"m. c #FEC652",
"M. c #FDC75B",
"N. c #FFCE5D",
"B. c #CAC075",
"V. c #D4C57E",
"C. c #FECB61",
"Z. c #FFD173",
"A. c #87B480",
"S. c #98BB8B",
"D. c #A1BE8E",
"F. c #A9C898",
"G. c #B5CBA3",
"H. c #CCCE98",
"J. c #D0CC92",
"K. c #E1C981",
"L. c #E4CD8A",
"P. c #F2CF83",
"I. c #FBD485",
"U. c #FCD78A",
"Y. c #FFDA8E",
"T. c #F4DA9E",
"R. c #FDDC9E",
"E. c #C3D2AD",
"W. c #C9D5B2",
"Q. c #D4DBBA",
"!. c #F5C8A0",
"~. c #F9DDA2",
"^. c #E8DFB5",
"/. c #F8DCB9",
"(. c #DCE4BE",
"). c #FFE1A9",
"_. c #FEE5B3",
"`. c #F2E6BF",
"'. c #FFE5BC",
"]. c #DEE0C2",
"[. c #EAE4C6",
"{. c #EBE6C9",
"}. c #FCEAC4",
"|. c #FEECCA",
" X c #F7EDD4",
".X c #FAEDD4",
"XX c #FFF1DB",
"oX c #FFF4E3",
"OX c #FFF6ED",
"+X c #FEF8ED",
/* pixels */
"L D F F F F F F F F F F F F F F F F F F F F F F F F F F F F F F F F F F F F F F F F F F F F F F F F ",
"L D F F F F F F F F F F F F F F F F F F F F F F F F F F F F F F F F F F F F F F F F F F F F F F F F ",
"L D F F F F F F F F F F F F F F F F F F F F F F F F F F F F F F F F F F F F F F F F F F F F F F F F ",
"L D F F F F F F F F F F F F F F F F F F F F F F F F F F F F F F F F F F F F F F F F F F F F F F F F ",
"L D F F F F F F F F F F F F F F F F F F F F F F F F F F F F F F F F D D F F F D F F F F F F F F F F ",
"L D F F F F F F F F F F F F F F F F F F F F F F F F F F F F F F F D D D D D D D D F F F F F F F F F ",
"L D F F F F F F F F F F F F F F F F F F F F F F F F F F F F F F D D D H ~ ~ H D F F F F F F F F F F ",
"L D F F F F F F F F F F F F F F F F F F F F F F F F F F F F F D F D H ^ / J F F F F F F F F F F F F ",
"L D F F F F F F F F F F F F F F F F F F F F U T E E T G F F F F D H ^ / J D D D D F F F F F F F F F ",
"L D F F F F F F F F F F F F F F F F G _ S.E.].{.{.[.[.Q.G.k.T D D H ^ ^ F D D D F F F F F F F F F F ",
"L D F F F F F F F F F F F F F F F ' Q. X_.Z.n.i.e.e.r.a.m.I.`.G.E F K ^ F D D F F F F F F F F F F F ",
"L D F F F F F F F F F F F F F W E.XXXX.Xd.:.-.-.-.-.-.-.:.5.8.m.~.S.U ~ F D F F F F F F F F F F F F ",
"L D F F F F F F F F F F F F [ {.XXXXXXXXc.-.-.-.-.-.-.-.-.-.-.5.9.m.H.) F F F F F F F F F F F F F F ",
"L D F F F F F D D D D F F A. XXXXXXXXXXXw.-.-.-.-.-.-.-.-.4.5.8.9.5.i.L.E D F F F F F F F F F F F F ",
"L D F F D D D F H D D F [  XXXXXoXoXoXR.i.q.4.:.-.-.-.:.5.9.8.4.:.&.:.q.K.T F F F F F F F F F F F F ",
"L D F F D D F J ~ H D W {.XXXXoXoXOXoXR.M.g.e.9.5.4.:.8.5.:.-.-.-.&.#.:.q.B.I F F F F F F F F F F F ",
"L D F F F D J / / ~ H W.}.XXXXoXOX+X|._.v.u.t.9.9.9.9.9.O.e -.-.-.-.#.M :.w.j.F F F F F F F F F F F ",
"L D F F D D H J ^ / b.'.Y.XXXXoXXX}./.!.B t a *.9.9.+.g 3 # 9 d -.-.m M #.7.s.R F F F F F F F F F F ",
"L D F F F D D D J ( (.C.x.'._.Y.U.~.R.z.N = p 8.9.9.5.0 + O - %.-.-.#.k l -.7.h.F F F F F F F F F F ",
"L D F F F F D D D ] }.q.-.>.t.f.n.N.N.y.1 & @.9.9.9.9.$.# & 0 -.-.-.&.f l M 7.u.F F F F F F F F F F ",
"L D F F F F F D D F.Z.4.-.4.m.g.t.p.p.v q.+.v 9.9.9.9.O.*.6.a :.-.-.&.h j l :.7.Q F F F F F F F F F ",
"L D F F F F F D G Q.a.:.-.q.).e.9.9.9.9.9.9.9.9.9.9.9.9.9.5.8.4.-.-.-.h f l &.7.| F F F F F F F F F ",
"L D F F F F F F T ^.e.-.-.7.r.8.;.9.9.9.9.9.9.9.6.8.9.9.9.4.8.4.&.$.-.h u l #.7.X.F F F F F F F F F ",
"L D F F F F F F W T.8.-.-.4.9.6.6 9.9.9.9.9.9.9.r @.9.9.9.4.4.5.k e &.h u l M 7.1.F F F F F F F F F ",
"L D F F F F F F _ U.7.-.-.:.g 9 X q a 6.9.8.c d : ; r *.9.:.O.d < o 9 8 u k M 7.2.F F F F F F F F F ",
"L D F F F F F F _ I.4.&.-.:.o.# =   o.9.9.9.=.; $ . p 8.8.-.:.0 + O - w u l M 7.2.F F F F F F F F F ",
"L D F F F F F F W P.4.&.-.-.4., > o 8.9.9.9.9.y % + *.9.4.-.:.m o : 2 u u l M 7.1.F F F F F F F F F ",
"L D F F F F F F T L.7.#.&.-.$.z 8.z ;.9.9.9.8.a 5.+.o.8.-.-.:.h c m 4 u u l #.7.X.F F F F F F F F F ",
"L D F F F F F F G J.8.&.&.&.-.:.8.9.9.9.8.9.9.9.9.9.5.:.-.-.-.-.&.b u u f l -.7.| F F F F F F F F F ",
"L D F F F F F F F D.w.-.M m &.-.-.4.9.9.c 6.9.9.8.4.-.-.m x -.&.m u u u j n :.7.Z F F F F F F F F F ",
"L D F F F F F F F ` x.:.n M b &.-.-.-.:., s 6.:.-.-.&.&.y 5 #.m f u u f l #.7.0.F F F F F F F F F F ",
"L D F F F F F F F G V.7.#.n k h &.&.r $ @ X * c -.-.x & @ X X 6 u u u k l :.7.| F F F F F F F F F F ",
"L D F F F F F F F F ' a.:.n n f f m #.7 + . c -.-.&.&.f + . 2 u u u j l #.7.2.V D D F F F F F F F F ",
"L D F F F F F F F F F l.7.-.l l f f l 4 8 , d #.#.M n y * 3 * u u f l M 4.7.} F D D D F F F F F F F ",
"L D F F F F F F F F F R s.7.&.l l j i y u u y f f u u w u u w u j l n :.7.,.~ J F D D F F F F F F F ",
"L D F F F F F F F F F F ! w.4.&.l l j f u u u u u u u u u u f l l M :.7.1.S ^ J J D F F F F F F F F ",
"L D F F F F F F F F F F F Q 6.7.:.n l l k f i u u u u f j l l l #.4.7.1.S ^ H F F D D F F F F F F F ",
"L D F F F F F F F F F F F F Z 0.7.4.&.n l l l l l l l l l l M :.7.7.X.C / J F F D D F F F F F F F F ",
"L D F F F F F F F F F F F F F V { 6.7.4.-.&.M n n n M #.&.:.7.7.3...Y H / J D F F F F F F F F F F F ",
"L D F F F F F F F F F F F F F D F Z { 6.7.7.7.7.7.7.7.7.7.7.3. .C J J F ^ J D F F F F F F F F F F F ",
"L D F F F F F F F F F F F F D D D D F V } { 1.6.6.6.3.<. .A G F D H H D H H D F F F F F F F F F F F ",
"L D F F F F F F F F F F F F D D F D D D D D F F P P F F F F F D D D D D D D D D F F F F F F F F F F ",
"L D F F F F F F F F F F F F D D J ^ ~ F D D D F F F F F F F F F D F D D F F D F F F F F F F F F F F ",
"L D F F F F F F F F F F F F D D F ~ / ~ F F F F F F F F F F F F F F F F F F F F F F F F F F F F F F ",
"L D F F F F F F F F F F F F D D D F ~ / J D F F F F F F F F F F F F F F F F F F F F F F F F F F F F ",
"L D F F F F F F F F F F F F F D D D H ^ J D F F F F F F F F F F F F F F F F F F F F F F F F F F F F ",
"L D F F F F F F F F F F F F F F D D F J J D F F F F F F F F F F F F F F F F F F F F F F F F F F F F ",
"L D F F F F F F F F F F F F F F D D D D F D D F F F F F F F F F F F F F F F F F F F F F F F F F F F ",
"L D F F F F F F F F F F F F F F F D D D D D F F F F F F F F F F F F F F F F F F F F F F F F F F F F ",
"L D F F F F F F F F F F F F F F F F F F F F F F F F F F F F F F F F F F F F F F F F F F F F F F F F "
};