/* XPM */
static char *f985408cdfe040e6ad1f91ad6a11bba7RGwfwn3IE3LU1CO3[] = {
/* columns rows colors chars-per-pixel */
"50 50 158 2 ",
"   c #1F292F",
".  c #253037",
"X  c #1F4531",
"o  c #214532",
"O  c #224A32",
"+  c #2E523E",
"@  c #30523F",
"#  c #335B3F",
"$  c #2D3A45",
"%  c #2E3C48",
"&  c #303C45",
"*  c #323A49",
"=  c #27365D",
"-  c #2C365E",
";  c #2B3B5E",
":  c #363F52",
">  c #383E53",
",  c #333D5C",
"<  c #2D3C63",
"1  c #2F3E69",
"2  c #313E64",
"3  c #3C3E60",
"4  c #403A59",
"5  c #2B444E",
"6  c #30494F",
"7  c #2F5241",
"8  c #315241",
"9  c #345D41",
"0  c #39524E",
"q  c #2F4950",
"w  c #374054",
"e  c #384054",
"r  c #334B54",
"t  c #30405F",
"y  c #3B4558",
"u  c #344B58",
"i  c #3B545B",
"p  c #376A44",
"a  c #396B45",
"s  c #3B7A47",
"d  c #2F4164",
"f  c #2E4268",
"g  c #2E486B",
"h  c #324266",
"j  c #394565",
"k  c #324864",
"l  c #33446A",
"z  c #39446B",
"x  c #34496B",
"c  c #3B4A6D",
"v  c #344671",
"b  c #3D4D73",
"n  c #3E5275",
"m  c #3E547A",
"M  c #42425E",
"N  c #405656",
"B  c #704E5F",
"V  c #414B63",
"C  c #415566",
"Z  c #42546D",
"A  c #424E75",
"S  c #404E79",
"D  c #435375",
"F  c #4B5576",
"G  c #465876",
"H  c #4A5976",
"J  c #45547A",
"K  c #4A567B",
"L  c #46597C",
"P  c #4A5A7C",
"I  c #515E7D",
"U  c #694960",
"Y  c #71536C",
"T  c #655673",
"R  c #486167",
"E  c #4F6669",
"W  c #4F686E",
"Q  c #536B6D",
"!  c #436179",
"~  c #4E617E",
"^  c #556174",
"/  c #53627D",
"(  c #59677F",
")  c #5B697F",
"_  c #814B5F",
"`  c #894E5C",
"'  c #936974",
"]  c #916C7D",
"[  c #358644",
"{  c #3F8746",
"}  c #378A45",
"|  c #388C46",
" . c #3B8A49",
".. c #3A9245",
"X. c #3D9B45",
"o. c #409648",
"O. c #439D49",
"+. c #42A946",
"@. c #46A649",
"#. c #47A949",
"$. c #4D5E83",
"%. c #525E82",
"&. c #515F88",
"*. c #466381",
"=. c #4E6283",
"-. c #4D6884",
";. c #4F648A",
":. c #516485",
">. c #546485",
",. c #566686",
"<. c #596685",
"1. c #556986",
"2. c #5A6983",
"3. c #5B6984",
"4. c #596986",
"5. c #526289",
"6. c #576689",
"7. c #56668A",
"8. c #59668A",
"9. c #5A678A",
"0. c #56698B",
"q. c #576A8A",
"w. c #57698F",
"e. c #59698A",
"r. c #5C718D",
"t. c #516391",
"y. c #586791",
"u. c #566B90",
"i. c #5B6B91",
"p. c #5D7292",
"a. c #606A85",
"s. c #61748D",
"d. c #617593",
"f. c #647698",
"g. c #64799A",
"h. c #6B7E9D",
"j. c #816E84",
"k. c #8F6F83",
"l. c #887285",
"z. c #8E7F93",
"x. c #6C819F",
"c. c #6D82A1",
"v. c #7786A7",
"b. c #7987A6",
"n. c #768BA7",
"m. c #7286A9",
"M. c #7489A8",
"N. c #788CAA",
"B. c #7B92B6",
"V. c #8D94AD",
"C. c #9E9AAC",
"Z. c #8497BA",
"A. c #869CBD",
"S. c #879DBF",
"D. c #899CBD",
"F. c #9C9CB3",
"G. c #8DA2BF",
"H. c #89A0C1",
/* pixels */
"{ } } | | | | | | | | | | | | | | | | | | | | | | | | | | | | | | | | | | | | | | | | | | | | | | | ",
"{ } } | | | | | |  . . . . . . . . . . . . . . . . . . . . . . . . . . . . . . .| | | | | | | | | | ",
"{ } } | | | | |  .s a a a a a a a a a a a a a a a a a a a a a a p p p p p a a s } | | | | | | | | | ",
"{ } } | | | | |  .+ . $ $ $ $ $ $ % $ $ $ $ % $ $ $ $ $ $ $ $ $ $ $ $ $ $ &   O } | | | | | | | | | ",
"{ } } | | | | |  .@ y H / / I I / ~ / / / / / / I / / / ,./ / / / / / / / ^ * o } | } } } | | | | | ",
"{ } } | | | | |  .8 V 4.,.P K G H L H H G G G K H K K K H H H H H G L ,.2.) e o [ | | | | | | | | | ",
"{ } } | | | | |  .8 V 6.:.c 2 h t < d ; = h < < < < 2 2 2 2 2 h d d h P ,.2.: o } | | | } | | | | | ",
"{ } } | | | | |  .8 V 6.:.h b %.:.;.5.b = b 5.$.J K $.&.$.K K P ;.K f L ,.4.e o } | | | | | | | | | ",
"{ } } | | | | |  .8 V 6.:.h J 9.e.q.u.J < K y.v < < S 5.K 1 < l =.u.m $.q.4.: o [ | | | | | | | | | ",
"{ } } | | | | |  .8 V 6.:.h J 9.e.q.u.K < K y.l h 1 b 5.S < b d 6.B.m.p.q.2.w o } | | | | | | | | | ",
"{ } } | | | | |  .8 V ,.:.h J <.e.q.u.K < J 6.z = = b 5.K < = d e.S.S.g.1.2.w o } | | | | | | | | | ",
"{ } } | | | | |  .@ V ,.:.h D 4.4.q.q.:.J b K P K K :.:.,.G K P p.D.H.f.1.2.w o } | | | | | | | | | ",
"{ } } | | | | |  .@ V ,.:.h D <.4.q.q.6.q.D x P 6.e.6.,.6.e.e.e.r.S.D.g.4.2.w o } | | | | | | | | | ",
"{ } } | | | | }  .@ V ,.:.h D <.4.q.q.e.q.:.P c D 6.6.e.q.4.4.4.e.p.L =.4.<.: o } | | | | | | | | | ",
"{ } } | } } } |  .8 V ,.:.h J <.e.q.q.q.q.q.6.K c H 6.,.e.e.4.e.e.$.; H e.2.: o } | | } | | | | | | ",
"{ } } | } } ..X.O.8 V ,.:.h J 9.e.q.q.q.e.q.q.q.P c H e.e.4.4.4.9.%.h P <.2.> o } } } } | | | | | | ",
"{ } } | | | X.+.#.9 V 6.:.h J ,.q.q.q.e.e.,.q.e.,.K c H 4.,.4.e.9.$.h P 9.<.> o } | | | | | | | | | ",
"{ } } | } | ..X.@.9 V 9.:.d n 1.1.q.q.q.e.e.1.,.9.6.A c %.e.1.e.9.$.h K e.4.> o } | | | | | | | | | ",
"{ } } | | } } | o.# V 9.:.d D e.1.q.q.e.1.1.1.e.e.9.5.J b $.q.e.e.$.h L e.2.: o } | | | | | | | | | ",
"{ } } | | | } }  .# V 9.:.l b ~ =.=.%.%.:.=.1.q.q.e.6.:.b b 6.e.e.$.f L e.2.: o } | | | | | | | | | ",
"{ } } | | | | }  .@ V 5.$.x d d k x z z x x P 1.q.q.e.9.n l 6.e.q.$.f L q.2.: o } | } } } | | | | | ",
"{ } } | | | | }  .+ V ,.G 6.m.M.n.m.v.b.N.c.D L q.q.9.,.n k :.q.q.$.f L 1.2.: X } | } } } } | | | | ",
"{ } } | | | | |  .+ V %.b i.S.G.D.D.F.C.F.V.D L 6.q.q.6.n l :.e.q.:.x L q.2.: X } | | } | | | | | | ",
"{ } } | | | | |  .+ V %.c $.g.x.e.4.l.' ] j.M F q.w.w.6.S l 5.e.e.m.h.i.q.2.w X } | | | | | | | | | ",
"{ } } | | | | |  .+ V %.c b 6.d.~ F k.` _ Y 4 F 6.w.w.6.A z <.e.p.D.D.g.1.2.: o [ | | | | | | | | | ",
"{ } } | | | | |  .+ V %.c b q.h.e.I z.B U T 3 K e.q.q.:.D j ,.1.d.D.S.g.e.2.: o [ | | | | | | | | | ",
"{ } } | | | | |  .+ V %.c b 6.p.~ L s.C Z P d K 9.9.4.,.b k -.1.s.D.Z.f.e.2.: o [ | | | | | | | | | ",
"{ } } | | | | |  .+ V %.c b 6.1.L J -.! *.*.f L 6.4.4.,.n g ;.1.e.h.e.q.4.2.> o [ | | | | | | | | | ",
"{ } } | | | | |  .+ V %.c b :.1.:.:.,.,.6.;.< K q.1.4.,.n v t.9.e.=.d L e.2.> o [ | | | | | | | | | ",
"{ } } | | | | |  .+ V ,.D c D G G K K K K J z K e.q.e.6.b z 5.9.9.$.h P e.2.: o [ | | | | | | | | | ",
"{ } } | | | | |  .+ V ,.:.l < ; ; 2 2 h h x $.e.6.e.6.6.J h 6.e.9.$.h P 9.2.: o } | | | | | | | | | ",
"{ } } | | | | |  .+ V ,.:.l n ~ ,.:.,.,.:.,.6.6.e.e.e.:.b b 6.e.e.$.h L 9.2.: X [ | | | | | | | | | ",
"{ } } | | | | |  .+ V <.,.h D ,.4.9.e.e.e.e.e.6.e.e.$.D b :.e.e.e.:.f K 6.2.: X [ } | | | | | | | | ",
"{ } } | | | | |  .+ V ,.,.h K 1.4.9.e.6.6.6.e.e.e.,.b c :.e.e.e.e.;.f L ,.2.: X [ } } | | | | | | | ",
"{ } } | | | | |  .+ V <.,.h D ,.4.e.e.e.e.e.e.e.,.G c P e.e.e.e.9.;.d K ,.2.e O } } } | | | | | | | ",
"{ } } | | | | |  .7 V ,.,.h D 1.e.9.9.e.e.e.e.6.G c P e.e.e.6.e.9.=.d L e.2.: O | | } | | | | | | | ",
"{ } } | | | | |  .7 V <.,.h D ,.e.9.e.e.6.6.6.D c $.,.e.e.e.e.1.,.=.f J e.( : o [ } } | | | | | | | ",
"{ } } | | | | |  .7 V <.,.h D ,.e.9.6.6.e.:.G D H e.,.e.,.e.,.1.q.c.p.6.q.2.: o } } | | | | | | | | ",
"{ } } | | | | |  .7 V <.,.h D ,.e.9.e.6.6.H z $.6.6.e.e.e.e.e.e.r.S.S.g.q.2.: o } | | | | | | | | | ",
"{ } } | | | | |  .7 V <.,.h D ,.e.9.9.:.D b $.6.e.6.e.e.e.,.6.1.p.S.S.g.q.2.: X } | | | | | | | | | ",
"{ } } | | | | |  .7 V <.:.h D ,.e.9.9.K = K i.K D D P 6.:.D D G r.S.Z.g.1.2.: o } | } } } } | | | | ",
"{ } } | | | | |  .7 V <.:.h D 6.e.9.6.K < J e.x = = b 6.D = < h :.M.g.q.1.2.: X } | } } | } | | | | ",
"{ } } | | | | |  .8 V <.,.h n q.6.i.9.K < J q.l h h b 6.J < x h $.%.< K 4.4.: X } | | } | | | | | | ",
"{ } } | | | | |  .7 V <.:.h A e.e.9.i.K < J e.b < < J 6.K h < z :.:.; F 4.2.: o } | } } | | | | | | ",
"{ } } | | | | |  .7 V 2.,.j c P I I %.A - b %.K J K K K K K K F H D , H a.2.e o } | | | | | | | | | ",
"{ } } | } | | | } + N E W i q r r r u r 5 r r r u u r r r u r r r 6 u R Q Q 0 + } | | | | | | | | | ",
"{ } } | | | | | } } }  . .} } } } } } ....} } } } } } } } } } } } } } }  . .} } } | | | | | | | | | ",
"{ } } | | | | | | | | | | } | | } } } | | } } | | | | | | | | | | | | | | | | | | | | | | | | | | | ",
"{ } } | | | | | | | | | | | | | | } } } } } | | | | | | | | | | | | | | | | | | | | | | | | | | | | ",
"{ } } | | | | | | | | | | | | | | | | | | | | | | | | | | | | | | | | | | | | | | | | | | | | | | | "
};
