/* XPM */
static char *_ad1fd72632849a8b985d11df8e9c9e6NKiJhjzLU9wM55BJ[] = {
/* columns rows colors chars-per-pixel */
"50 50 185 2 ",
"   c #010001",
".  c #01030B",
"X  c #080B0F",
"o  c #071109",
"O  c #08110C",
"+  c #050513",
"@  c #080210",
"#  c #0A0D16",
"$  c #0A0E1A",
"%  c #100F14",
"&  c #0B1114",
"*  c #0E131C",
"=  c #0E1B1B",
"-  c #111417",
";  c #11161E",
":  c #0D0F21",
">  c #0E1422",
",  c #141F2D",
"<  c #161F3A",
"1  c #1A1D3A",
"2  c #251632",
"3  c #281337",
"4  c #231934",
"5  c #26143E",
"6  c #2C153C",
"7  c #231C3B",
"8  c #192727",
"9  c #1D382B",
"0  c #182231",
"q  c #213734",
"w  c #223835",
"e  c #24333A",
"r  c #2B393F",
"t  c #21502E",
"y  c #264337",
"u  c #225132",
"i  c #255833",
"p  c #2F663C",
"a  c #2D6F39",
"s  c #31673D",
"d  c #336A3E",
"f  c #2E713A",
"g  c #36753E",
"h  c #32783F",
"j  c #3A7B3F",
"k  c #1D1745",
"l  c #1F1946",
"z  c #241546",
"x  c #2C1443",
"c  c #261A46",
"v  c #2C1C45",
"b  c #241F4E",
"n  c #2B1B4A",
"m  c #311640",
"M  c #311845",
"N  c #30194B",
"B  c #23234C",
"V  c #282149",
"C  c #252949",
"Z  c #2D3B43",
"A  c #29354D",
"S  c #2D3C48",
"D  c #313B46",
"F  c #333C4A",
"G  c #232652",
"H  c #242A54",
"J  c #272C56",
"K  c #2B2F5A",
"L  c #302B57",
"P  c #2C3B55",
"I  c #303F51",
"U  c #3A375F",
"Y  c #313D5E",
"T  c #323560",
"R  c #343F64",
"E  c #304247",
"W  c #3D4857",
"Q  c #35425A",
"!  c #3E4A5B",
"~  c #337542",
"^  c #337942",
"/  c #347748",
"(  c #3B7E4C",
")  c #334465",
"_  c #384666",
"`  c #324967",
"'  c #3C4A62",
"]  c #354469",
"[  c #3A466C",
"{  c #364A6A",
"}  c #3A4B6D",
"|  c #3F506F",
" . c #3D4571",
".. c #3D4C72",
"X. c #3E5273",
"o. c #424C5D",
"O. c #534D5D",
"+. c #44595E",
"@. c #414A62",
"#. c #40476D",
"$. c #4D4C6B",
"%. c #514D6E",
"&. c #455466",
"*. c #4A5566",
"=. c #4B5D64",
"-. c #46546A",
";. c #4B566C",
":. c #4D586E",
">. c #50576E",
",. c #5A536D",
"<. c #50586C",
"1. c #414976",
"2. c #414D74",
"3. c #4F4C70",
"4. c #504B70",
"5. c #425476",
"6. c #4B5771",
"7. c #4C5972",
"8. c #45547A",
"9. c #4B557D",
"0. c #4C5C7B",
"q. c #525D73",
"w. c #585F77",
"e. c #545E7B",
"r. c #5A5D7B",
"t. c #58616B",
"y. c #4D607F",
"u. c #566275",
"i. c #5A6675",
"p. c #586877",
"a. c #54647C",
"s. c #58667F",
"d. c #56687E",
"f. c #5A697E",
"g. c #5E7076",
"h. c #676A78",
"j. c #60707F",
"k. c #3F8746",
"l. c #378B45",
"z. c #388C46",
"x. c #388048",
"c. c #3A9345",
"v. c #3D9C45",
"b. c #3F8350",
"n. c #3FA246",
"m. c #408253",
"M. c #41A246",
"N. c #43AB46",
"B. c #46B047",
"V. c #4C5E81",
"C. c #515D84",
"Z. c #585A81",
"A. c #4F6586",
"S. c #566681",
"D. c #546485",
"F. c #596682",
"G. c #556C84",
"H. c #596981",
"J. c #5B6A83",
"K. c #5C6A81",
"L. c #55648A",
"P. c #58658B",
"I. c #54698A",
"U. c #596C8A",
"Y. c #586590",
"T. c #5E7290",
"R. c #626B8F",
"E. c #627796",
"W. c #667A9A",
"Q. c #6A7E9D",
"!. c #6E7EA0",
"~. c #6A8598",
"^. c #6F82A5",
"/. c #7185A4",
"(. c #7389A6",
"). c #778AAB",
"_. c #7D92A4",
"`. c #888EAF",
"'. c #9397AF",
"]. c #8B97B7",
"[. c #849AB9",
"{. c #90A2BF",
"}. c #8FA3C2",
"|. c #91A5C5",
" X c #93A8C4",
/* pixels */
"k.l.l.z.z.z.z.z.z.z.z.z.z.z.z.z.z.z.z.z.z.z.z.z.z.z.z.z.z.z.z.z.z.z.z.z.z.z.z.z.z.z.z.z.z.z.z.z.z.z.",
"k.l.l.z.z.z.z.z.z.z.z.z.z.z.z.z.z.z.z.z.z.z.z.z.z.z.z.z.z.z.z.z.z.z.z.z.z.z.z.z.z.z.z.z.z.z.z.z.z.z.",
"k.l.l.z.z.z.z.z.z.z.z.z.z.z.z.z.z.z.z.z.z.z.z.z.z.z.z.z.z.z.z.z.z.z.z.z.z.z.z.z.z.z.z.z.z.z.z.z.z.z.",
"k.l.l.z.z.z.z.z.z.z.z.z.z.z.z.z.z.z.z.z.z.z.z.z.z.z.z.z.z.z.z.z.z.z.z.z.z.z.z.z.z.z.z.z.z.z.z.z.z.z.",
"k.l.l.z.z.z.z.z.z.z.z.z.z.z.z.z.z.z.z.z.z.z.z.z.z.z.z.z.z.z.z.z.z.z.l.l.z.z.z.l.z.z.z.z.z.z.z.z.z.z.",
"k.l.l.z.z.z.z.z.z.z.z.z.z.z.z.z.z.z.z.z.z.z.z.z.z.z.z.z.z.z.z.z.z.l.l.z.z.z.z.l.l.z.z.z.z.z.z.z.z.z.",
"k.l.l.z.z.z.z.z.z.z.z.z.z.z.z.z.z.z.z.z.z.z.z.z.z.z.z.z.z.z.z.z.l.l.z.c.M.v.c.l.l.z.z.z.z.z.z.z.z.z.",
"k.l.l.z.z.z.z.z.z.z.l.~ p p p s s s s s s s s s s s s s s s s p s s d g j g s ^ l.z.z.z.z.z.z.z.z.z.",
"k.l.l.z.z.z.z.z.z.z.^ 9 e Z Z r r Z Z Z Z Z Z Z Z Z Z Z Z Z Z Z Z r r Z Z Z 8 i l.l.z.z.z.z.z.z.z.z.",
"k.l.l.z.z.z.z.z.z.z.^ q -.a.a.u.u.u.u.u.u.u.u.u.u.u.r.r.r.r.w.r.r.r.u.u.a.u.r t l.l.z.z.z.z.z.z.z.z.",
"k.l.l.z.z.z.z.z.z.z.^ q ;.G.d.&.o.o.o.o.o.o.o.o.o.o.@.$.$.%.$.4.3.$.-.0.F.J.S u l.l.z.z.z.z.z.z.z.z.",
"k.l.l.z.z.z.z.z.z.z.^ q 6.J.:., : $ $ $ $ # # # $ $ : 4 7 v v V n V C [ D.S.S u l.l.z.z.z.z.z.z.z.z.",
"k.l.l.z.z.z.z.z.z.z.^ q ;.J.-.> . .               . + 2 3 6 M N n V C [ L.S.S u l.l.z.z.z.z.z.z.z.z.",
"k.l.l.z.z.z.z.l.l.l.~ q :.J.&.* .                   @ 2 3 m x x z U 9.C.P.F.S u l.l.z.z.z.z.z.z.z.z.",
"k.l.l.z.l.l.l.z.c.z.^ q :.K.*.*                     @ 2 3 x x n k Z.].Q.U.S.Z u l.l.z.z.z.z.z.z.z.z.",
"k.l.l.z.l.l.c.v.n.c.^ q :.K.*.*                     @ 4 5 v c b B R.{./.U.d.Z u l.l.z.z.z.z.z.z.z.z.",
"k.l.l.z.z.z.v.N.N.M.^ q :.K.*.*                     @ 7 c c V J [ /. X(.U.s.Z u l.l.z.z.z.z.z.z.z.z.",
"k.l.l.z.l.z.c.v.N.B.l.w :.K.*.*                     @ 7 V l B T 8.W.~.U.D.s.D u l.l.z.z.z.z.z.z.z.z.",
"k.l.l.z.z.l.l.z.v.N.z.w :.J.*.*                     . 1 B l B [ L.I.{ { D.F.D u l.l.z.z.z.z.z.z.z.z.",
"k.l.l.z.z.z.l.l.c.M.z.w 6.J.*.*                     . 1 G l G  .Y.L.} } P.F.D u l.l.z.z.z.z.z.z.z.z.",
"k.l.l.z.z.z.z.l.z.v.l.w ;.K.*.*                     + < H G H  .L.L...} P.F.D u l.l.z.z.z.z.z.z.z.z.",
"k.l.l.z.z.z.z.l.z.z.^ w :.K.*.*                     + < H K J [ P.L.....D.F.S u l.l.z.z.z.z.z.z.z.z.",
"k.l.l.z.z.z.z.z.l.l.h q :.K.*.*                   . + 7 L 1.]  .C.L...} D.F.S u l.l.z.z.z.z.z.z.z.z.",
"k.l.l.z.z.z.z.z.z.z.^ q 7.K.*.*                     + 1 K 9.C...5.L.....D.S.S u l.l.z.z.z.z.z.z.z.z.",
"k.l.l.z.z.z.z.z.z.z.^ q :.f.W *                   . , A ] 8.D.....L...} D.d.S u l.l.z.z.z.z.z.z.z.z.",
"k.l.l.z.z.z.z.z.z.z.^ q <.q.0 .                   & t._.(.9.8.....D...} D.d.S u l.l.z.z.z.z.z.z.z.z.",
"k.l.l.z.z.z.z.z.z.z.^ q :.:.>                     - h.'.`.9.......L.0.5.D.d.S u l.l.z.z.z.z.z.z.z.z.",
"k.l.l.z.z.z.z.z.z.z.^ q >.:.>                     % O.,.r.#.2...} ^.[.Q.I.d.S u l.l.z.z.z.z.z.z.z.z.",
"k.l.l.z.z.z.z.z.z.z.^ q >.:.>                     - t.i.6._ 2...} (.|./.U.d.S u l.l.z.z.z.z.z.z.z.z.",
"k.l.l.z.z.z.z.z.z.z.^ q <.:.>                     - g._.G.) ....} ).}./.U.d.S u l.l.z.z.z.z.z.z.z.z.",
"k.l.l.z.z.z.z.z.z.z.^ q <.:.>                     & +.~.G.` 5...} !.).E.G.d.S u l.l.z.z.z.z.z.z.z.z.",
"k.l.l.z.z.z.z.z.z.z.^ q :.:.>                     # W j.a.) 5...} L.8.X.S.f.S u l.l.z.z.z.z.z.z.z.z.",
"k.l.l.z.z.z.z.z.z.z.^ q :.7.0 .                   X F q.7.} 8.....D.} } S.s.S u l.l.z.z.z.z.z.z.z.z.",
"k.l.l.z.z.z.z.z.z.z.^ q 6.J.! *                   . > A _ 8.L.2...D.....D.F.S u l.l.l.z.z.z.z.z.z.z.",
"k.l.l.z.z.z.z.z.z.z.^ q 6.J.*.;                     # Q e.D.D...5.L...} D.F.S i z.l.l.z.z.z.z.z.z.z.",
"k.l.l.z.z.z.z.z.z.z.^ w 6.J.*.*                     $ @.G.D.] } D.L...} D.F.S i c.z.l.z.z.z.z.z.z.z.",
"k.l.l.z.z.z.z.z.z.z.^ w 6.G.*.*                     $ o.J.D.) _ P.D...} D.s.S u z.l.l.z.z.z.z.z.z.z.",
"k.l.l.z.z.z.z.z.z.z.^ q ;.J.*.*                     # W J.y.) } L.D...} D.s.S u l.l.z.z.z.z.z.z.z.z.",
"k.l.l.z.z.z.z.z.z.z.^ q 6.G.-.*                     & o.a.| ..V.L.L...} D.F.S u l.l.z.z.z.z.z.z.z.z.",
"k.l.l.z.z.z.z.z.z.z.^ q 7.G.*.*                     & o.a._ X.I.I.I.5.X.D.d.S u l.l.z.z.z.z.z.z.z.z.",
"k.l.l.z.z.z.z.z.z.z.^ q 7.G.*.*                     $ ! 0.{ 5.I.D.Q.(.T.G.d.S u l.l.z.z.z.z.z.z.z.z.",
"k.l.l.z.z.z.z.z.z.z.^ q 7.G.*.*                     $ o.} ..A.I.D.(.}./.G.d.S u l.l.z.z.z.z.z.z.z.z.",
"k.l.l.z.z.z.z.z.z.z.^ q 6.G.*.*                     $ @.Y 5.L.I.y./.|./.G.d.S u l.l.z.z.z.z.z.z.z.z.",
"k.l.l.z.z.z.z.z.z.z.^ q 6.G.*.*                     $ ' Y X.X.5.} E.[.Q.G.d.S u l.l.z.z.z.z.z.z.z.z.",
"k.l.l.z.z.z.z.z.z.z.^ q :.J.*.*                     $ ' R ..) { ) 9.D.0.J.f.S u l.l.z.z.z.z.z.z.z.z.",
"k.l.l.z.z.z.z.z.z.z.^ q ;.K.*.>                     $ @.R 2.....[ 2..._ S.K.S u l.l.z.z.z.z.z.z.z.z.",
"k.l.l.z.z.z.z.z.z.z.^ q :.f.*.*                   . $ ! Y 2.9.9.9.9.....F.K.F u l.l.z.z.z.z.z.z.z.z.",
"k.l.l.z.z.z.z.z.z.z.^ y =.i.+.8 & O o O O O O O O O = S I Q ' ' _ Q P ' d.p.E i l.l.z.z.z.z.z.z.z.z.",
"k.l.l.z.z.z.z.z.z.z.l.^ b.b.( ~ f f f f f a f f f f f ^ / / / / / / / ( m.b./ x.l.z.z.z.z.z.z.z.z.z.",
"k.l.l.z.z.z.z.z.z.z.z.z.z.z.z.z.z.z.z.z.z.z.z.z.z.z.z.z.z.z.z.z.z.z.z.z.z.z.z.z.z.z.z.z.z.z.z.z.z.z."
};