/* XPM */
static char *_b85ca4435ca42f9dc7618ef9e8853d8l3WlTDQgIcgZPcQG[] = {
/* columns rows colors chars-per-pixel */
"50 50 222 2 ",
"   c #010101",
".  c #080807",
"X  c #060708",
"o  c #0B0C0B",
"O  c #170C02",
"+  c #0B150E",
"@  c #0D0E10",
"#  c #141414",
"$  c #191511",
"%  c #15181B",
"&  c #1B1B1B",
"*  c #26170C",
"=  c #331B08",
"-  c #241E19",
";  c #132D17",
":  c #18271A",
">  c #2B221C",
",  c #3C2511",
"<  c #181C23",
"1  c #1C2A24",
"2  c #1D242D",
"3  c #1B3E21",
"4  c #1F2934",
"5  c #222223",
"6  c #272827",
"7  c #2B2C2B",
"8  c #372E28",
"9  c #213B2D",
"0  c #272B36",
"q  c #273437",
"w  c #25363C",
"e  c #26393B",
"r  c #293B3B",
"t  c #333334",
"y  c #363939",
"u  c #4C1E0A",
"i  c #4F2B0F",
"p  c #572A0D",
"a  c #472A14",
"s  c #562A15",
"d  c #5A3418",
"f  c #692407",
"g  c #752607",
"h  c #652419",
"j  c #683916",
"k  c #7B3913",
"l  c #4D1F20",
"z  c #55342A",
"x  c #4D3737",
"c  c #622522",
"v  c #653B2C",
"b  c #782233",
"n  c #1B4221",
"m  c #1F4D26",
"M  c #265A2B",
"N  c #294939",
"B  c #275931",
"V  c #2D513D",
"C  c #29672B",
"Z  c #296233",
"A  c #2B6936",
"S  c #2A6739",
"D  c #2B6939",
"F  c #316A3D",
"G  c #2E723A",
"H  c #32793E",
"J  c #6C471F",
"K  c #78451E",
"L  c #57453D",
"P  c #6E412B",
"I  c #764823",
"U  c #744C35",
"Y  c #2B3744",
"T  c #363A47",
"R  c #362F54",
"E  c #323E5A",
"W  c #3B2169",
"Q  c #2D3D61",
"!  c #2D2476",
"~  c #382477",
"^  c #471F42",
"/  c #443D45",
"(  c #492971",
")  c #3C4147",
"_  c #2F5345",
"`  c #345D4A",
"'  c #3C465B",
"]  c #396543",
"[  c #347341",
"{  c #377943",
"}  c #3A6450",
"|  c #324264",
" . c #3F4C61",
".. c #374668",
"X. c #394973",
"o. c #434343",
"O. c #47464A",
"+. c #4D4A48",
"@. c #494C5A",
"#. c #534957",
"$. c #595658",
"%. c #6F4E4E",
"&. c #46705D",
"*. c #404C61",
"=. c #444D6C",
"-. c #475367",
";. c #555867",
":. c #4D5B74",
">. c #465778",
",. c #4B5B7B",
"<. c #535C74",
"1. c #535D79",
"2. c #614D6D",
"3. c #4A7462",
"4. c #556176",
"5. c #546179",
"6. c #5E6179",
"7. c #6E727E",
"8. c #882907",
"9. c #992607",
"0. c #8E2913",
"q. c #892F12",
"w. c #A72608",
"e. c #BA2D0C",
"r. c #872225",
"t. c #942723",
"y. c #B93825",
"u. c #AA3939",
"i. c #B43B37",
"p. c #C0310F",
"a. c #C63917",
"s. c #D33D1B",
"d. c #C53D27",
"f. c #8F4819",
"g. c #A7481C",
"h. c #874C24",
"j. c #8B572D",
"k. c #965428",
"l. c #B04E22",
"z. c #A65927",
"x. c #956939",
"c. c #AA642C",
"v. c #B46A2F",
"b. c #A56838",
"n. c #AF7132",
"m. c #B67438",
"M. c #D9421E",
"N. c #D34221",
"B. c #DB4321",
"V. c #CF5A25",
"C. c #E14521",
"Z. c #D27833",
"A. c #9F6650",
"S. c #A86E44",
"D. c #AC7A48",
"F. c #8C5E68",
"G. c #A87469",
"H. c #39903D",
"J. c #358443",
"K. c #3F8746",
"L. c #378B45",
"P. c #388B46",
"I. c #388E44",
"U. c #388C46",
"Y. c #3E8D4C",
"T. c #3C9745",
"R. c #408F4D",
"E. c #439B4A",
"W. c #C7813A",
"Q. c #DA883D",
"!. c #B98A56",
"~. c #B98A57",
"^. c #988472",
"/. c #BDAB71",
"(. c #CB844A",
"). c #C68957",
"_. c #D18C53",
"`. c #C6945B",
"'. c #D89755",
"]. c #EA9747",
"[. c #E29B57",
"{. c #E3A25B",
"}. c #C89768",
"|. c #D59A67",
" X c #C7A66B",
".X c #E5A869",
"XX c #F0B36F",
"oX c #F4B96C",
"OX c #E7B776",
"+X c #F2C37E",
"@X c #252284",
"#X c #2A2689",
"$X c #342B89",
"%X c #312F94",
"&X c #452E80",
"*X c #4F5D82",
"=X c #515E82",
"-X c #526283",
";X c #576787",
":X c #5A6985",
">X c #5A6A89",
",X c #5D7292",
"<X c #64688A",
"1X c #667999",
"2X c #4746AB",
"3X c #778BAB",
"4X c #818E98",
"5X c #8194B1",
"6X c #F9CB87",
"7X c #F3CD89",
"8X c #F7D795",
"9X c #FCD691",
"0X c #FDDC9A",
"qX c #FAE19C",
"wX c #E8C8B2",
"eX c #FDE1A1",
"rX c #FDE8BD",
"tX c #DCD7D3",
"yX c #ECD8C5",
"uX c #F4E8D1",
"iX c #F8EFEA",
"pX c #FBF4ED",
/* pixels */
"K.P.P.U.U.U.U.U.U.U.U.U.U.U.U.U.U.U.U.U.U.U.U.U.U.U.U.U.U.U.U.U.U.U.U.U.U.U.U.U.U.U.U.U.U.U.U.U.U.U.",
"K.P.P.U.U.U.U.U.U.U.U.U.U.U.U.U.P.P.P.P.U.U.U.U.U.U.U.U.U.U.U.U.U.U.U.U.U.U.U.U.U.U.U.U.U.U.U.U.U.U.",
"K.P.P.U.U.U.U.U.U.U.U.U.U.U.U.U.L.J.L.P.P.U.U.U.U.U.U.U.U.U.U.U.U.U.U.U.U.U.U.U.U.U.U.U.U.U.U.U.U.U.",
"K.P.P.U.U.U.U.U.U.U.U.P.L.P.P.P.G m B [ J.P.U.U.P.P.U.U.U.U.U.U.U.U.U.U.U.U.U.U.U.U.U.U.U.U.U.U.U.U.",
"K.P.P.U.U.U.U.U.U.P.L.L.P.U.P.P.J.n . 7 O.] P.H m H U.U.U.U.U.U.U.U.L.L.U.U.U.L.U.U.U.U.U.U.U.U.U.U.",
"K.P.P.U.U.U.U.U.L.L.H B N ] ] [ [ D ; o 7 o.` F : ; F [ [ [ [ [ [ G G G [ [ { L.L.U.U.U.U.U.U.U.U.U.",
"K.P.P.U.U.U.U.P.A m 1 : 6 y y y r e 4 X o y o.) 2 X q e e e e r e e e e r r 9 F P.P.U.U.U.U.U.U.U.U.",
"K.P.P.U.U.U.P.P.Z   & 7 & & 5 7 ) -.:.0 . & y o.) @ 2 -.:.:.:.:.:.:.:.:.:.-.q D P.P.U.U.U.U.U.U.U.U.",
"K.P.P.U.P.U.U.P.J.n .     o # & 7 ) -.Y X   & 7 t # o 0 ' =.,.:.,.>.,.;X:X4.r D L.P.U.U.U.U.U.U.U.U.",
"K.P.P.U.U.U.U.U.P.J.3         . # & 7 #         # & & # X < 4 E | | ..,.:X4.w S L.L.U.U.U.U.U.U.U.U.",
"K.P.P.U.U.U.U.U.P.P.{ +                                   & & 2 >.>...,.>X5.Y D L.L.U.U.U.U.U.U.U.U.",
"K.P.P.U.U.U.U.U.U.P.Y.1 X                                 # t & 4 ;X>.>.>X1.w S L.L.U.U.U.U.U.U.U.U.",
"K.P.P.U.U.U.U.U.U.U.R.V 0 %                                 # t 5 -.T E ;X5.w S L.L.U.U.U.U.U.U.U.U.",
"K.P.P.U.U.U.U.L.L.L.Y.V ' T #                                 % t 6 < -.<.-.q D L.L.U.U.U.U.U.U.U.U.",
"K.P.P.U.L.L.L.U.U.L.{ N ' ) #                                   # t y o.t % % D L.L.U.U.U.U.U.U.U.U.",
"K.P.P.U.L.L.U.H.H m : & y t #             o &                     # 5 5 o 6 q D L.L.U.U.U.U.U.U.U.U.",
"K.P.P.U.U.U.T.C ; # 7 y t #     o #     . > >       & .             # # 0 -.w Z H J.P.U.U.U.U.U.U.U.",
"K.P.P.U.L.U.U.T.C ; & 5 #     . 5 # O = * 7 y & .   , - & o             0 O.T 6 + M U.U.U.U.U.U.U.U.",
"K.P.P.U.U.L.L.U.T.H.M +       # 6   O j n.v 6 > = O h.p > t #         o & 5 & o m P.U.U.U.U.U.U.U.U.",
"K.P.P.U.U.U.L.L.U.T.E.9 X     o # O p v.Q.h.$ 8 n.p z.k.i > & .         . .   ; J.L.U.U.U.U.U.U.U.U.",
"K.P.P.U.U.U.U.L.U.T.E.V 0 X   o # * K K j j d 8 OXW.j j i d * # & .     # @ o B L.L.U.U.U.U.U.U.U.U.",
"K.P.P.U.U.U.U.L.L.U.R.V ' 0     O p k.I /. Xk.z 7X(.W. X XJ s $ . . # & 5 6 4 D L.L.U.U.U.U.U.U.U.U.",
"K.P.P.U.U.U.U.U.U.U.P.9 2 @ O p j I .X_.(._.[.(.6X].XX_.(. Xm.j I = # # 0 @.q S L.L.U.U.U.U.U.U.U.U.",
"K.P.P.U.U.U.U.U.U.U.Z +     O j.!.x.+X|.wXyXyX6X9X6XyXyXwX|.[.x.`.U - @ % < % Z L.L.U.U.U.U.U.U.U.U.",
"K.P.P.U.U.U.U.U.U.P.Y.N 2 @ a ).OX'.OX}.pXtX^.8X0X8X^.tXpX).OX'.OX).,   % Y 2 S L.L.U.U.U.U.U.U.U.U.",
"K.P.P.U.U.U.U.U.U.U.R.V '  .5 v b.'.+X.XpXyXS.8X0X7XS.yXpX.X+X'.[.j.> Y :.<.w S L.L.U.U.U.U.U.U.U.U.",
"K.P.P.U.U.U.U.U.U.U.R.V *.=X| T j S.9X6XuXiXwX6X0X0XwXiXuX6X9Xb.I $.1X,X:X4.w S L.L.U.U.U.U.U.U.U.U.",
"K.P.P.U.U.U.U.U.U.U.R.V *.=X..>.<.U !.qXeXrXrX9X0XeXrXrXeX0X!.P @.5X5X1X:X4.w S L.L.U.U.U.U.U.U.U.U.",
"K.P.P.U.U.U.U.U.U.U.R.V *.=X..>.;X;.P !.oX0X9XoXoXoX9X0XoXD.P ;.>X3X1X>X:X4.w S L.L.U.U.U.U.U.U.U.U.",
"K.P.P.U.U.U.U.U.U.U.Y.V *.=X..>.;X-X#.g v.OX9XoXoXoX9X.Xv.f #.;X>X-X..,.:X4.w S L.L.U.U.U.U.U.U.U.U.",
"K.P.P.U.U.U.U.U.U.U.Y.V  .-XX.X.>.@.h 8.8.l.D.!.|.!.D.l.8.8.c <.;X*XE / o.@.w S L.L.U.U.U.U.U.U.U.U.",
"K.P.P.U.U.U.U.U.U.U.Y.V  .;X,.Q ' P f.9.e.w.8.c.Z.c.8.w.e.9.f.U 6.@.j k k d 7 S L.L.U.U.U.U.U.U.U.U.",
"K.P.P.U.U.U.U.U.U.U.Y.V  .>X,.X.%.m.Z.8.s.e.a.Z.].Z.a.e.M.8.Z.m.%.x g.V.V.k > S L.L.U.U.U.U.U.U.U.U.",
"K.P.P.U.U.U.U.U.U.U.Y.V  .>X<.2.F.G.x.9.B.B.s.a.V.a.M.B.B.9.z.A.F.%.f.g.k i 6 D L.L.L.U.U.U.U.U.U.U.",
"K.P.P.U.U.U.U.U.U.U.Y.V  .:XU c.G.<X^ w.s.B.B.s.p.M.B.B.s.w.f 2.A.c.h.d z +.w G U.L.L.U.U.U.U.U.U.U.",
"K.P.P.U.U.U.U.U.U.U.Y.V *.#.b.[._.!.u h w.s.B.B.C.M.B.s.w.r.p `.(.'.x.+.:X4.e G U.U.P.U.U.U.U.U.U.U.",
"K.P.P.U.U.U.U.U.U.U.Y.V *./ x.OX(.z.l R c t.a.u.u.u.a.t.r.^ s c.(.OXj./ :X4.e D U.L.L.U.U.U.U.U.U.U.",
"K.P.P.U.U.U.U.U.U.U.Y.V *./ h.{..Xc.u c W W b @X$X$Xb ~ @Xc p v..X{.K O.:X4.w S L.L.U.U.U.U.U.U.U.U.",
"K.P.P.U.U.U.U.U.U.U.Y.V *.;.d h.k.j f w.b #X@X#X2X2X#X#X@Xb f j k.h.d <.:X4.w S L.L.U.U.U.U.U.U.U.U.",
"K.P.P.U.U.U.U.U.U.U.Y.V *.;X@.a a f w.b $X2X@X! ! ! #X2X%X! r.f i L 7.,X;X4.w S L.L.U.U.U.U.U.U.U.U.",
"K.P.P.U.U.U.U.U.U.U.Y.V *.>X,.E / q.i.~ @X@XW h f h ( 2X2X&Xu.g $.5X3X,X;X4.w S L.L.U.U.U.U.U.U.U.U.",
"K.P.P.U.U.U.U.U.U.U.Y.V  .>X,.Q +.q.N.u.~ ( 0.9.f 9.y.( ( u.w.f ;.3X1X;X:X5.w S L.L.U.U.U.U.U.U.U.U.",
"K.P.P.U.U.U.U.U.U.U.Y._  .:X,.Q ,.%.q.d.d.y.9.f f g w.y.d.w.g x ,.-X| ,.>X5.w S L.L.U.U.U.U.U.U.U.U.",
"K.P.P.U.U.U.U.U.U.U.Y._ *.:X,.Q *X-Xv g w.9.f s / s f g 9.g x | ,.-X| ,.<X5.w S L.L.U.U.U.U.U.U.U.U.",
"K.P.P.U.U.U.U.U.U.P.Y.V @.:X1.E =.>.T > x L 8 7 =.7 8 L x > T =.>.=.E 1.:X4.w S L.L.U.U.U.U.U.U.U.U.",
"K.P.P.U.U.U.U.U.U.P.P.S } 3.&.` ` N 5 ;.4XO.& N ` N 1 +.4X$.5 _ ` ` } &.3.&.] { P.P.U.U.U.U.U.U.U.U.",
"K.P.P.U.U.U.P.U.U.U.P.L.P.P.P.L.L.D : 7 t 6 B J.L.J.B 6 y 6 : G L.L.P.P.P.P.L.L.U.U.U.U.U.U.U.U.U.U.",
"K.P.P.U.U.P.P.U.U.U.U.U.U.U.U.P.L.J.D Z Z A J.L.P.L.J.A Z Z G L.P.P.P.U.U.U.U.U.U.U.U.U.U.U.U.U.U.U.",
"K.P.P.U.U.U.U.U.U.U.U.U.U.U.U.U.U.L.L.L.L.L.P.U.U.U.P.L.L.L.L.U.U.U.P.P.P.U.U.P.U.U.U.U.U.U.U.U.U.U.",
"K.P.P.U.U.U.U.U.U.U.U.U.U.U.U.U.U.U.U.U.U.U.U.U.U.U.U.U.U.U.U.U.U.U.P.U.U.U.U.U.U.U.U.U.U.U.U.U.U.U."
};