/* XPM */
static char *_40e3f7f159c4e98b84b989ddca47805A8AjDM04z8zq3X5W[] = {
/* columns rows colors chars-per-pixel */
"50 50 18 1 ",
"  c #378B46",
". c #378D45",
"X c #388B46",
"o c #388C46",
"O c #389045",
"+ c #3B9445",
"@ c #3C9745",
"# c #3C9945",
"$ c #3E9D45",
"% c #3FA046",
"& c #418746",
"* c #40A346",
"= c #41A746",
"- c #43AB46",
"; c #44AB46",
": c #45AF46",
"> c #46B046",
", c #47B447",
/* pixels */
"& Xooooooooooooooooooooooooooooooooooooooooooooooo",
"& Xooooooooooooooooooooooooooooooooooooooooooooooo",
"& Xooooooooooooooooooooooooooooooooooooooooooooooo",
"& Xooooooooooooooooooooooooooooooooooooooooooooooo",
"& Xooooooooooooooooooooooooooooooo  ooo oooooooooo",
"& Xoooooooooooooooooooooooooooooo   .    ooooooooo",
"& Xooooooooooooooooooooooooooooo   O==O oooooooooo",
"& Xoooooooooooooooooooooooooooo o O->$oooooooooooo",
"& Xooooooooooooooooooooooooooooo O->$    ooooooooo",
"& Xoooooooooooooooooooooooooooo  O-:o   oooooooooo",
"& XoooooooooooooooooooooooooooooX.%-o..ooooooooooo",
"& Xooooooooooooooooooooooooooooo  O=o.oooooooooooo",
"& Xoooooooooooooooooooooooooooooo o@oXoooooooooooo",
"& Xoooo    oooooooooooooooooooooo     oooooooooooo",
"& Xo   oO   o      oooooooooooooo  o ooooooooooooo",
"& Xo  o$=O      +o ooooooooooooooooooooooooooooooo",
"& Xoo $>>=OXoXO*-OXooooooooooooooooooooooooooooooo",
"& Xo .O#:,=o.o=>$.oooooooooooooooooooooooooooooooo",
"& Xoo  .#:-o.o;=o  ooooooooooooooooooooooooooooooo",
"& Xooo  .*-o.o-*.Xoooooooooooooooooooooooooooooooo",
"& Xoooo  @=o o@+. oooooooooooooooooooooooooooooooo",
"& Xoooo   Oo      oooooooooooooooooooooooooooooooo",
"& Xooooo      oo ooooooooooooooooooooooooooooooooo",
"& Xooooooooooooooooooooooooooooooooooooooooooooooo",
"& Xooooooooooooooooooooooooooooooooooooooooooooooo",
"& Xooooooooooooooooooooooooooooooooooooooooooooooo",
"& Xooooooooooooooooooooooooooooooooooooooooooooooo",
"& Xooooooooooooooooooooooooooooooooooooooooooooooo",
"& Xooooooooooooooooooooooooooooooooooooooooooooooo",
"& Xooooooooooooooooooooooooooooooooooooooooooooooo",
"& Xooooooooooooooooooooooooooooooooooooooooooooooo",
"& Xooooooooooooooooooooooooooooooooooooooooooooooo",
"& Xooooooooooooooooooooooooooooooooo XXX  oooooooo",
"& Xoooooooooooooooooooooooooo oooo    ..   ooooooo",
"& Xooooooooooooooooooooooooo         #=$o  ooooooo",
"& Xooooooooooooooooooooooooo  OOO   #::##.Xooooooo",
"& Xoooooooooooooooooooooooooo #:-O O:-+Xo  ooooooo",
"& Xooooooooooooooooooooooooo ..#:-OO>$ o  oooooooo",
"& Xoooooooooooooooooooooooooo ..#:#O>$ ooooooooooo",
"& Xoooooooooooo ooo oooooooooo  .$#o-$ ooooooooooo",
"& Xooooooooooo       oooooooooo  O+ +@ ooooooooooo",
"& Xooooooooooo  o..   ooooooooo   .     oooooooooo",
"& Xooooooooooo  #-*o   ooooooooo X  oo ooooooooooo",
"& Xooooooooooo  o*>*oXoooooooooooooooooooooooooooo",
"& Xooooooooooo   o*># oooooooooooooooooooooooooooo",
"& Xoooooooooooo   +:# oooooooooooooooooooooooooooo",
"& Xooooooooooooo  o$# oooooooooooooooooooooooooooo",
"& Xooooooooooooo   .o  ooooooooooooooooooooooooooo",
"& Xoooooooooooooo     oooooooooooooooooooooooooooo",
"& Xooooooooooooooooooooooooooooooooooooooooooooooo"
};