/* XPM */
static char *_fc2a3c1aad0432ad1b617bd4e6895a2lqHpwdvymBIFZV9p[] = {
/* columns rows colors chars-per-pixel */
"50 50 222 2 ",
"   c #010101",
".  c #090603",
"X  c #080B06",
"o  c #0C0C0C",
"O  c #180D04",
"+  c #0A130B",
"@  c #0B1B0E",
"#  c #13110D",
"$  c #131313",
"%  c #161A15",
"&  c #1A1B1B",
"*  c #261304",
"=  c #331B0A",
"-  c #251C15",
";  c #0E2312",
":  c #162819",
">  c #153419",
",  c #183B1C",
"<  c #28251B",
"1  c #372415",
"2  c #373415",
"3  c #1F1F20",
"4  c #1F2820",
"5  c #1E3922",
"6  c #242424",
"7  c #242A25",
"8  c #272C28",
"9  c #2B2C2B",
"0  c #27362A",
"q  c #3A312B",
"w  c #2E3831",
"e  c #333433",
"r  c #373B39",
"t  c #4C270B",
"y  c #57280A",
"u  c #45340D",
"i  c #58310E",
"p  c #472616",
"a  c #4B301A",
"s  c #583813",
"d  c #6D2504",
"f  c #642806",
"g  c #772405",
"h  c #7C340C",
"j  c #692C10",
"k  c #653A17",
"l  c #6B3B15",
"z  c #733D16",
"x  c #793C15",
"c  c #51342C",
"v  c #4D2237",
"b  c #6C2A29",
"n  c #3D4519",
"m  c #1D4222",
"M  c #1E4C25",
"N  c #234627",
"B  c #255329",
"V  c #24552C",
"C  c #245A2D",
"Z  c #355829",
"A  c #38453A",
"S  c #2F5E37",
"D  c #3B622C",
"F  c #316D2F",
"G  c #2C6533",
"H  c #2A6835",
"J  c #2B6B35",
"K  c #2E743A",
"L  c #3B7937",
"P  c #32733C",
"I  c #327B3D",
"U  c #48471B",
"Y  c #554416",
"T  c #475D1F",
"R  c #68431C",
"E  c #75451C",
"W  c #4A5925",
"Q  c #51512D",
"!  c #794722",
"~  c #72502C",
"^  c #4E672C",
"/  c #437B39",
"(  c #7D6137",
")  c #392158",
"_  c #3A206C",
"`  c #2B2177",
"'  c #502357",
"]  c #69264D",
"[  c #47256A",
"{  c #582C6A",
"}  c #462A75",
"|  c #622E65",
" . c #3F4D42",
".. c #3E5843",
"X. c #3B6743",
"o. c #397543",
"O. c #3E7A65",
"+. c #424544",
"@. c #4C5256",
"#. c #535D5D",
"$. c #426946",
"%. c #6F6354",
"&. c #6F5674",
"*. c #842302",
"=. c #8A2607",
"-. c #992607",
";. c #8C3410",
":. c #A82508",
">. c #B72D0C",
",. c #BA300F",
"<. c #AA2E12",
"1. c #86242A",
"2. c #95313B",
"3. c #BC3923",
"4. c #C2320F",
"5. c #C83917",
"6. c #D53F1E",
"7. c #C63E28",
"8. c #894618",
"9. c #994515",
"0. c #A14D1B",
"q. c #854C23",
"w. c #895829",
"e. c #9A5929",
"r. c #8B5934",
"t. c #A44C21",
"y. c #A65A2A",
"u. c #94673C",
"i. c #A7612A",
"p. c #AE6E31",
"a. c #A66438",
"s. c #B7733A",
"d. c #D2471E",
"f. c #CE4D2A",
"g. c #D24126",
"h. c #DB4321",
"j. c #C55723",
"k. c #E14623",
"l. c #D56528",
"z. c #C57739",
"x. c #956948",
"c. c #A77846",
"v. c #BC7B45",
"b. c #956971",
"n. c #AA7D64",
"m. c #C67E4A",
"M. c #32803D",
"N. c #3A833F",
"B. c #3E9C3E",
"V. c #42993D",
"C. c #358342",
"Z. c #358542",
"A. c #398444",
"S. c #378A45",
"D. c #388B45",
"F. c #388B46",
"G. c #388D45",
"H. c #388C46",
"J. c #398A4A",
"K. c #3B9445",
"L. c #3E9B45",
"P. c #3FA043",
"I. c #418746",
"U. c #41A545",
"Y. c #43AB45",
"T. c #46B146",
"R. c #CD863A",
"E. c #E88B3C",
"W. c #B38550",
"Q. c #BCA06D",
"!. c #C7844B",
"~. c #CE8F4F",
"^. c #DB9247",
"/. c #C58952",
"(. c #D8965A",
"). c #E7954A",
"_. c #E49B56",
"`. c #F0A858",
"'. c #D4996A",
"]. c #CAA166",
"[. c #D8A86A",
"{. c #DCA675",
"}. c #DAB978",
"|. c #E6A863",
" X c #EFB36F",
".X c #ECBA77",
"XX c #F6C27A",
"oX c #1C1F87",
"OX c #19218E",
"+X c #252489",
"@X c #2A2C92",
"#X c #2F3199",
"$X c #37369C",
"%X c #3B3BA2",
"&X c #49398F",
"*X c #403DA1",
"=X c #665C9B",
"-X c #4646AC",
";X c #78868F",
":X c #B0A49E",
">X c #CFAB87",
",X c #E3BB90",
"<X c #D2BCAC",
"1X c #D8C587",
"2X c #E9C685",
"3X c #F8CA86",
"4X c #F7D38D",
"5X c #FAD38C",
"6X c #F2D196",
"7X c #FBD692",
"8X c #FBD995",
"9X c #FDDD9A",
"0X c #FDE09B",
"qX c #FADAA9",
"wX c #E5C5B2",
"eX c #FDE2AB",
"rX c #DFD2C8",
"tX c #F2DCC8",
"yX c #FAE9D3",
"uX c #F0E9E4",
"iX c #FBF3E6",
"pX c #FDFBF9",
/* pixels */
"I.S.F.H.H.H.H.H.H.H.H.F.F.F.F.F.K C C o.A.F.H.H.F.F.H.H.H.H.H.H.H.H.H.H.H.H.H.H.H.H.H.H.H.H.H.H.H.H.",
"I.S.F.H.H.H.H.H.H.S.S.S.F.F.F.F.K : X e ..o.A.F.K H Z.H.H.H.H.H.H.H.H.H.H.H.H.H.H.H.H.H.H.H.H.H.H.H.",
"I.S.F.H.H.H.H.H.H.S.Z.K o.o.A.F.S.K > X 9 +...A.C ; C S.H.H.H.H.H.H.H.H.H.H.H.H.H.H.H.H.H.H.H.H.H.H.",
"I.S.F.H.H.H.H.C.I B , : A  ...o.F.S.H + X e +...o.; ; Z.H.H.H.H.H.H.H.H.H.H.H.H.H.H.H.H.H.H.H.H.H.H.",
"I.S.F.H.H.F.F.G @ $ e e 7 6 7 A o.A.Z.m . & r +.$.V @ H S.S.F.F.H.H.S.S.H.H.F.S.H.H.H.H.H.H.H.H.H.H.",
"I.S.F.H.H.H.F.Z.: . $ $ X & 6 6 r X.A.H + X & e +.w X @ H Z.S.S.S.S.S.S.H.S.S.S.S.H.H.H.H.H.H.H.H.H.",
"I.S.F.H.H.H.F.S.H ;       X o $ 6 e ..N +   . $ 6 7 $ $ 4 5 C I S.S.S.K.U.U.K.S.H.H.H.H.H.H.H.H.H.H.",
"I.S.F.H.H.H.H.F.S.H ;         . o $ & o         . o o o o . % : V Z.K.Y.T.L.H.H.H.H.H.H.H.H.H.H.H.H.",
"I.S.F.H.H.H.H.H.S.Z.M .                                     $ 4 : V P.T.L.S.S.S.S.H.H.H.H.H.H.H.H.H.",
"I.S.F.H.H.H.H.H.F.S.K ; X                                   $ 9 e % F U.I C.S.S.H.H.H.H.H.H.H.H.H.H.",
"I.S.F.H.H.H.H.H.H.F.F.H 0 o                                   o 8 9 : F > G S.S.F.H.H.H.H.H.H.H.H.H.",
"I.S.F.H.H.H.H.H.F.F.S.S.P 7 o                                   o 8 e % : P C.I C.H.H.H.H.H.H.H.H.H.",
"I.S.F.H.H.H.S.S.S.S.C.Z.C.0 o                                     + 7 r A  .w : m F.F.H.H.H.H.H.H.H.",
"I.S.F.H.H.S.Z.I H V : 0 A 8 o               $ o                     o 6 8 8 $ ; H H.H.H.H.H.H.H.H.H.",
"I.S.F.H.S.S.G , + & 8 e 9 $ .   X o       # & $       $ .             o & $ ; H S.S.S.S.S.H.H.H.H.H.",
"I.S.F.H.S.S.K , + & e e $     X & & . O . & 9 6 X   . - $ $ .           o . V o.$.S m M Z.H.H.H.H.H.",
"I.S.F.H.H.S.L.B.K , $ $       & 6 o . = R a q 9 % O O l 1 < & #           o 4 w e & + C S.H.H.H.H.H.",
"I.S.F.H.S.H.K.K.Y.B.B +       6 3 . * l R.e.p & a i = y.z 1 e 6           $ & & $ + C Z.F.H.H.H.H.H.",
"I.S.F.H.H.S.S.H.L.Y.U.M .     $ $ O i y.z.i.p # r.R.z y.e.y 1 < $ X .       . .   , C.S.F.H.H.H.H.H.",
"I.S.F.H.H.H.S.S.H.P.Y.M., .   $ # * ! E R R R p %..Xz.l k s k 1 # & $   . . & $ : K S.H.H.H.H.H.H.H.",
"I.S.F.H.H.H.H.S.S.K.U.H.I @   . O i e.k Q.1X/.z x..Xz.^.}.1X( i p X . . & & 6 0 K F.H.H.H.H.H.H.H.H.",
"I.S.F.H.H.H.H.S.S.S.K C : X O l l E |.(.!.!._.^.[.XX). X~.m.]./.q.z ! # & $ 0 K C.S.F.H.H.H.H.H.H.H.",
"I.S.F.H.H.H.H.H.S.I > X     * c.c.u.2X(.,XwXtXqX5X5X3XtXwXwX{.(.v.a.W.1 - X ; > , I S.F.H.H.H.H.H.H.",
"I.S.F.H.H.H.H.H.F.S.K m @ . t ].[./.2Xm.tXpX<X>X0X9X6X:XuXpX'.(.[.~.2Xq.- . + > V S.H.H.H.H.H.H.H.H.",
"I.S.F.H.H.H.H.H.H.H.F.S.K m p u.!._.3X(.yXiXn.c.0X9X,Xr.rXpX{.|..X_.|.k # > H S.F.H.H.H.H.H.H.H.H.H.",
"I.S.F.H.H.H.H.H.H.H.F.F.S.C.G 2 x v.4X XyXiX<X{.8X9X4X>XuXiX3XXX{.y.w.5 G I F.H.F.H.H.H.H.H.H.H.H.H.",
"I.S.F.H.H.H.H.H.H.H.H.H.F.F.S.C.W w.2X8X9XyXiXqX3X9XeXyXiXeX8X2XW.t Z I S.H.H.H.H.H.H.H.H.H.H.H.H.H.",
"I.S.F.H.H.H.H.H.H.H.H.H.H.H.F.F.F.W ! }.7X9X9X8X5X5X7X9X9X7X2Xc.s / F.S.H.H.H.H.H.H.H.H.H.H.H.H.H.H.",
"I.S.F.H.H.H.H.H.H.H.H.H.H.H.H.H.F.A.W q.^.3X7XXX`.`.`.8X4X`.i.R L F.F.H.F.F.F.F.H.H.H.H.H.H.H.H.H.H.",
"I.S.F.H.H.H.H.H.H.H.H.H.H.H.H.H.F.F.^ f h s..X0X5X5X5X8X~.8.f Y F.F.F.H.F.F.F.F.F.H.H.H.H.H.H.H.H.H.",
"I.S.F.H.H.H.H.H.H.H.H.H.H.H.H.F.F.^ j =.-.<.e.x.W./.c.e.<.-.-.g W A.F.N.D n n D A.F.H.H.H.H.H.H.H.H.",
"I.S.F.H.H.H.H.H.H.H.H.H.H.H.F.F./ ! 0.=.,.:.-.9.z.z.i.=.:.4.-.9.w.^ L U x ;.;.k D F.F.H.H.H.H.H.H.H.",
"I.S.F.H.H.H.H.H.H.H.H.H.H.F.J.O.%.s.R.h 5.4.4.d.E.E.l.4.,.h.=.i.^.x.#.k j.l.j.z n H.F.H.H.H.H.H.H.H.",
"I.S.F.H.H.H.H.H.H.H.H.H.F.F.$.&.b.n.x.=.6.h.h.5.d.j.4.h.h.k.-.9.s.b.&.! t.0.x i Z H.S.H.H.H.H.H.H.H.",
"I.S.F.H.H.H.H.H.H.H.H.H.F./ ~ y.b.=X' -.5.h.h.h.5.4.h.h.h.6.>.*.c &.a.w.! i u W N.S.S.F.H.H.H.H.H.H.",
"I.S.F.H.H.H.H.H.H.H.H.F.F.^ s.z.(.Q.p j -.5.h.h.h.h.h.h.6.>.:.g ( [.z.^.! ^ V.K.K.S.S.S.H.H.H.H.H.H.",
"I.S.F.H.H.H.H.H.H.H.H.F.A.U W.[.z.i.p ) b -.5.h.g.g.g.6.<.:.] v 8.z.m.}.R / K.F.H.S.S.H.H.H.H.H.H.H.",
"I.S.F.H.H.H.H.H.S.H.H.F.Z.u p..X|.p.t v ) _ 1.1.} { | <.' [ v p 8.(..X(.Y L S.F.S.S.H.H.H.H.H.H.H.H.",
"I.S.F.H.H.H.H.H.F.H.H.F.A.U E m.v.q.t =.1._ _ _ #X-X*X[ ` OXb d s s.!.e.Y L S.F.H.H.H.H.H.H.H.H.H.H.",
"I.S.F.H.H.H.H.H.H.H.H.F.F.L s l l j *.-.] &X@X+X@X$X$X+X$X+X' b d k z s T L.S.H.H.H.H.H.H.H.H.H.H.H.",
"I.S.F.H.H.H.H.H.H.H.H.H.F.A.L n u d >.b +X%X@X` ) ) ) +X-X*X@X] -.u n D H.K.S.H.H.H.H.H.H.H.H.H.H.H.",
"I.S.F.H.H.H.H.H.H.H.H.H.H.H.S.S.W ;.f.{ +XoX_ b g d g { -X-X&X2.<.Y N.S.S.S.S.S.H.H.H.H.H.H.H.H.H.H.",
"I.S.F.H.H.H.H.H.H.H.H.H.H.H.S.S.^ h 5.7.{ } 1.:.g g :.3.| } 2.,.*.W A.S.H.H.S.H.H.H.H.H.H.H.H.H.H.H.",
"I.S.F.H.H.H.H.H.H.H.H.H.H.H.S.S.N.^ h 5.7.7.<.*.f f g :.3.7.>.*.Y L F.H.H.H.H.H.H.H.H.H.H.H.H.H.H.H.",
"I.S.F.H.H.H.H.H.H.H.H.H.H.H.S.H.F.A.^ g -.:.*.f U ^ y d g -.g s L F.F.H.H.H.H.H.H.H.H.H.H.H.H.H.H.H.",
"I.S.F.H.H.H.H.H.H.H.H.H.H.H.H.S.S.Z.G < a ~ c 1 Z P < q Q c 1 N C.F.H.H.H.H.H.H.H.H.H.H.H.H.H.H.H.H.",
"I.S.F.H.H.H.H.H.H.H.H.H.H.H.H.F.S.K 4 +.;X#.e : P S.N 6 @.;X#.9 B F.H.H.H.H.H.H.H.H.H.H.H.H.H.H.H.H.",
"I.S.F.H.H.H.H.H.H.H.H.H.H.H.H.F.S.K & e @.r 7 H S.F.I N 9 @.r : m H.H.H.H.H.H.H.H.H.H.H.H.H.H.H.H.H.",
"I.S.F.H.H.H.H.H.H.H.H.H.H.H.H.H.S.C.V 5 N N H S.S.F.S.I N m N N P F.H.H.H.H.H.H.H.H.H.H.H.H.H.H.H.H.",
"I.S.F.H.H.H.H.H.H.H.H.H.H.H.H.H.H.S.S.Z.S.Z.S.S.H.H.F.S.S.Z.S.S.S.H.H.H.H.H.H.H.H.H.H.H.H.H.H.H.H.H."
};