/* XPM */
static char *_df9d0f1f7594bc48ab769f37c650584FblWq9K8IhG2z7AW[] = {
/* columns rows colors chars-per-pixel */
"50 50 38 1 ",
"  c #3F1911",
". c #451B12",
"X c #4B1D13",
"o c #501F14",
"O c #4F2014",
"+ c #542115",
"@ c #5B2317",
"# c #5E2518",
"$ c #632719",
"% c #66281A",
"& c #68291A",
"* c #6D2B1B",
"= c #6C2C1B",
"- c #6B2A1C",
"; c #6E2B1C",
": c #6F2C1C",
"> c #702C1C",
", c #752E1D",
"< c #782F1E",
"1 c #77301E",
"2 c #79301E",
"3 c #7C311F",
"4 c #7C3020",
"5 c #7E3220",
"6 c #823221",
"7 c #863322",
"8 c #843421",
"9 c #863522",
"0 c #883522",
"q c #8D3723",
"w c #893624",
"e c #8D3725",
"r c #8F3824",
"t c #913825",
"y c #963A26",
"u c #983B27",
"i c #993C27",
"p c #9B3C28",
/* pixels */
"XXX++@@+@@#+.X++@++@+@@@X.+++@@@@+@@+.o+O+++@@@@@X",
"X*2390e09qy<X#,2600e90tt@+26000ee00t<X&32223qw0tt@",
"X&,22252,3t<.@,22226329r@X>222296,,0,X$222223329t@",
"X$*,,,<2229,.@*>,,,33220+X&,,,,32225>.#>,22222220+",
"X$%&&&>>,>,$.@&%&%&>>,>5+X%&&%;,,,26;.@&*>,>,332q#",
"X++++++++++X.X++++++++++..++++++++@#+.o+++++@@@#$X",
".XXXX..XXX.XXX.XXX...XXXXXXXXXX.XXXXX.XXXXX...XXX.",
"6666w$.=,>>,507905X@>,66679990$X$:>>2697705X+&>>>5",
"3323t&X:22590re0t9.+,2233500eu%.$&,223066q9X+&,223",
",222e&X%1,<2295,66X+&*>,,,225e&.$,<,,,52,26X+&,2,,",
"&:<<5#.$&&*,,23356X+%$&&&&:<,6$X%,:&&&><>*>X+>,>&&",
"@####X.+###@##%%&%XX#@@#@@###$+X@#@@#@@#@#@.X###@@",
" .X.....XXX...X........X....XX....X....X..X.....X.",
"X%>,<,<<,,3&.#&&&%&,,<<<+.#&*,,<,,<3%.+&&>,,,,,,<+",
"+25666rr66t5.&32333009ty@X*23660960u3X#23669e69ty@",
"X*2<22632,6,.#,222222<3q+X$>22222220,X#>22<<53<3e@",
"X&***,22226;.@;>22222220@X$&***,2223:.@&***>222<0+",
".$$$$$%%%*,$.@$$%%$&>>>5+X$$$$$$$%$%@X@$$$$$%%%%&X",
".X.XXX..X.X....X..XX.XXX..X...X..XX..........X..X.",
"&%%%&+.+####$%&%&$XX@###$%&$$-+.@####$%&&&$.X##$%%",
"0yyyp%.$><369r00ywX+:23399990u&.,3359ryyyyeX@25999",
"2359t$.$*,22,62266X+%>2221,,<q&.%2225506397X+:,,,1",
">,220%.%2,>>>22,>2X+;,,>>>,220$.$>>>2263<36X+%$&>>",
"$&;&>@.$;&$$$&;&%%X+&;&$$$&;*>@X$%$%**;,22<X+%$$$$",
"XXXXX..XX..XXXXXXX..XX.XX.XXXXX.XXXXXXXX+XX..XXXXX",
".X+@++@@++@X.X+++++++@++..X++@@@@+++X.X++X++++@++.",
".>0e00000qy,.#,,5000000t@X,29tt090ey<X&3222300eqt@",
"X%,32,12<30<.@;=,122<,20+X&22662,,3t<.#2222222950@",
"X$*22,>2216,.@%>2222,:,9+X%>,,>22>>9,.#,2222,,216@",
"X%&>,>&>,>03X#&%:>>>*&>,XX%%&&&>>%*6>.#*>,>>**233+",
"X++++++X++$#.X++++++++++X.+++++++++#+.X++++++@@##X",
"XXXXX...XXXXXXXXXX..XXXXXXXXXX...XXXXXXXXXX...XXXX",
"6699e$.%6669997705X+>,6999967e$X*,>><697695X+*><76",
"2290t&.%,2500006t0X+,32900930y%.*3222695299X+>2295",
"222,9%.$&>,<222299X+>2,2,:>23t$.%222222,232X+%>222",
",,>>9#X$%&&=,,<>>5X+&&&>*>,220%.$&>2>&&>296X+&*,,,",
"###$&+.+##@@#@@#@@.X#@#@@###%&+.+##@#@@%&&%.+#@###",
"...X.....X.....X....X.........X..X..X.....X..X....",
".%&>,<<,,,<%.#*&%&*,,<,<+X$,<<,,,<<3&.+&&><,>,,,<+",
"X>39rt9690u2.&3333369e0t+X>60666660y5X#,,2669669y@",
"X&,2222<,,0,.@,222222629+X$>22>,<229,.@&>,222,>,0+",
"X$&***,,&>9,X#>2222,*226+X$&,2,:2229<X#&*,222>&,5+",
".$$$$$$$$$,%.@$$%%$$&>>,+X$$$%%$$$%6>X@$#$%$%$$$%X",
".XX...X..XX..X..X.XX.XXX......XXX..X...X.XXX....X.",
"&%&%&+.@####$&$$&$XX@##$&&%$%&+.+&%&&$%&%&$XX##%&&",
"yr9tu&X,33360r09twX+,36r090rti%.&990tyytqywX@259ry",
",,,5y$.&222,362,35X+&,12<,1220$.$*,23553209X+>2125",
":>22e%.$>,2,>>>163X+%:22222,,6$.#%*>>222,57X+=>>,>",
"***,6$.$%&;&%%>262X+%%*;;;*&;3#X$%$$%*;;&%;X+%%$&%",
"XXX+XX.XoX.XX.+++X.XoXXXX.XXX+X.XXXXXXXXXXX.XoXXXX"
};